<svg xmlns="http://www.w3.org/2000/svg" width="70" height="70" viewBox="0 0 70 70" fill="none">
  <g clip-path="url(#clip0)">
    <path d="M56.9269 27.6827L43.9807 24.6766L47.808 8.19366C48.3147 6.01154 50.4945 4.65324 52.6766 5.16L57.7204 6.33103C59.9025 6.83766 61.2608 9.01748 60.7541 11.1996L56.9269 27.6827Z" fill="white"/>
    <path d="M12.2998 27.6828L25.246 24.6767L21.4188 8.19366C20.9122 6.01154 18.7323 4.65324 16.5502 5.16L11.5063 6.33117C9.32416 6.83779 7.96586 9.01762 8.47262 11.1997L12.2998 27.6828Z" fill="white"/>
    <path d="M39.8581 4.19529H29.3684L30.4174 0H38.8092L39.8581 4.19529Z" fill="white"/>
    <path d="M30.4178 12.5862H26.2223V4.07171C26.2222 1.82266 28.0453 0 30.2944 0H30.4178V12.5862Z" fill="white"/>
    <path d="M43.0045 12.5862H38.809V0H38.9324C41.1815 0 43.0046 1.82266 43.0046 4.07171V12.5862H43.0045Z" fill="white"/>
    <path d="M58.7383 27.2046V52.4439H10.4885V27.2046C10.4885 25.6151 10.71 24.0773 11.1251 22.6215L16.9216 19.6236L22.133 11.2722C23.4342 10.8572 24.8035 10.598 26.2217 10.5172H26.2231L28.5397 11.3726L30.4175 10.488H42.0216C51.2535 10.4879 58.7383 17.9729 58.7383 27.2046Z" fill="#FEA301"/>
    <path d="M33.4628 10.488C30.7687 11.8421 24.2729 16.0477 24.2729 25.1248V52.444H10.4885V27.2048C10.4885 17.973 17.9734 10.488 27.2052 10.488H33.4628Z" fill="#FEA301"/>
    <path d="M60.8361 50.3293V60.8677C60.8361 65.4842 57.093 69.226 52.4778 69.226H16.7488C12.1336 69.226 8.3905 65.4842 8.3905 60.8677V50.3293C8.3905 49.0629 8.95473 47.9277 9.8448 47.1629C10.5761 46.5318 11.529 46.1501 12.5696 46.1501H56.6571C58.9639 46.1501 60.8361 48.021 60.8361 50.3293Z" fill="#FEA301"/>
    <path d="M24.3883 69.2264H16.7488C12.1327 69.2264 8.3905 65.4843 8.3905 60.8682V50.3298C8.3905 49.0634 8.95473 47.9282 9.8448 47.1633L20.3206 52.4444V63.0971C20.3206 65.7521 21.7766 68.1211 24.3883 69.2264Z" fill="#FEA301"/>
    <path d="M50.4456 62.9328C47.7817 62.9328 45.827 60.4293 46.473 57.845L48.3477 50.3462H52.5432L54.4178 57.845C55.0641 60.4293 53.1094 62.9328 50.4456 62.9328Z" fill="#495560"/>
    <path d="M63.9817 50.3543C63.9817 50.9311 63.7476 51.4534 63.3701 51.8309C62.9926 52.2097 62.4688 52.4438 61.8922 52.4438H20.3206L16.3894 51.7765V44.0939L24.2727 41.9556H55.583C60.2218 41.9556 63.9817 45.7154 63.9817 50.3543Z" fill="white"/>
    <path d="M18.8188 49.9754C18.8188 51.0774 19.3928 51.8755 20.3206 52.4439H7.33451C6.1797 52.4439 5.24487 51.5077 5.24487 50.3543C5.24487 48.0349 6.18524 45.9356 7.70498 44.4157C9.22486 42.8958 11.3241 41.9556 13.6436 41.9556H24.2726C24.2727 41.9557 18.8188 44.1887 18.8188 49.9754Z" fill="white"/>
    <path d="M38.8786 23.0751H30.3482C29.2281 23.0751 28.3201 22.1671 28.3201 21.047V18.8099C28.3201 17.6898 29.2281 16.7817 30.3482 16.7817H38.8786C39.9987 16.7817 40.9067 17.6898 40.9067 18.8099V21.047C40.9067 22.1671 39.9987 23.0751 38.8786 23.0751Z" fill="#68A2DF"/>
    <path d="M23.3565 37.0793C25.6504 37.0793 27.5101 35.5984 27.5101 33.7716C27.5101 31.9448 25.6504 30.4639 23.3565 30.4639C21.0625 30.4639 19.2029 31.9448 19.2029 33.7716C19.2029 35.5984 21.0625 37.0793 23.3565 37.0793Z" fill="white"/>
    <path d="M45.8703 37.0793C48.1642 37.0793 50.0239 35.5984 50.0239 33.7716C50.0239 31.9448 48.1642 30.4639 45.8703 30.4639C43.5763 30.4639 41.7167 31.9448 41.7167 33.7716C41.7167 35.5984 43.5763 37.0793 45.8703 37.0793Z" fill="white"/>
  </g>
  <defs>
    <clipPath id="clip0">
      <rect width="69.2265" height="69.2265" fill="white"/>
    </clipPath>
  </defs>
</svg>
